# xmcd CD database file
#
# Track frame offsets:
#	150
#	12013
#	25800
#	53529
#	62937
#	78537
#	103330
#	122778
#	141915
#	175670
#	192794
#
# Disc length: 2971 seconds
#
# Revision: 0
# Processed by: cddbd v1.5PL3 Copyright (c) Steve Scherf et al.
# Submitted via: CDex 1.40Release
#
DISCID=8f0b990b
DTITLE=Various Artist - The Soound of SOFTLY! vol.2
DYEAR=2004
DGENRE=JPop
TTITLE0=Young Alive In Love - MU-STARS
TTITLE1=Young Alive In Love - EEL
TTITLE2=The Chime Will Ring - NO RETURN
TTITLE3=My Red Shoes - COSMETIQUE
TTITLE4=Aquamarine - COPTER 4016882
TTITLE5=Going Zero - PLASMATIQUEARCHITECTURE
TTITLE6=Blue Shinin' Quick Star - APRILS
TTITLE7=Southbound Excursion - THE SUPERIMPOSERS
TTITLE8=Dolphin Song - DRUMRIN
TTITLE9=Coolour Field - FLYER TO TEAM
TTITLE10=Blue Shinin' Quick Star - TND
EXTD=YEAR: 2004
EXTT0=
EXTT1=
EXTT2=
EXTT3=
EXTT4=
EXTT5=
EXTT6=
EXTT7=
EXTT8=
EXTT9=
EXTT10=
PLAYORDER=
